<mxfile host="app.diagrams.net" agent="Mozilla/5.0 (Windows NT 10.0; Win64; x64) AppleWebKit/537.36 (KHTML, like Gecko) Chrome/130.0.0.0 Safari/537.36" version="24.8.3">
  <diagram name="Page-1" id="-H_mtQnk-PTXWXPvYvuk">
    <mxGraphModel dx="2518" dy="1463" grid="1" gridSize="10" guides="1" tooltips="1" connect="1" arrows="0" fold="1" page="1" pageScale="1" pageWidth="4681" pageHeight="3300" math="0" shadow="0">
      <root>
        <mxCell id="0" />
        <mxCell id="1" parent="0" />
        <mxCell id="1Zy2XbYylVy56BqZgApC-192" value="" style="rounded=0;whiteSpace=wrap;html=1;align=left;" parent="1" vertex="1">
          <mxGeometry x="80" y="80" width="1850" height="760" as="geometry" />
        </mxCell>
        <mxCell id="1Zy2XbYylVy56BqZgApC-194" style="edgeStyle=orthogonalEdgeStyle;rounded=0;orthogonalLoop=1;jettySize=auto;html=1;exitX=0.5;exitY=1;exitDx=0;exitDy=0;entryX=0.5;entryY=0;entryDx=0;entryDy=0;" parent="1" source="1Zy2XbYylVy56BqZgApC-202" target="1Zy2XbYylVy56BqZgApC-201" edge="1">
          <mxGeometry relative="1" as="geometry">
            <mxPoint x="750" y="462.5" as="sourcePoint" />
          </mxGeometry>
        </mxCell>
        <mxCell id="1Zy2XbYylVy56BqZgApC-195" style="edgeStyle=orthogonalEdgeStyle;rounded=0;orthogonalLoop=1;jettySize=auto;html=1;entryX=0;entryY=0.5;entryDx=0;entryDy=0;" parent="1" source="1Zy2XbYylVy56BqZgApC-218" target="1Zy2XbYylVy56BqZgApC-200" edge="1">
          <mxGeometry relative="1" as="geometry" />
        </mxCell>
        <mxCell id="1Zy2XbYylVy56BqZgApC-196" value="User" style="shape=umlActor;verticalLabelPosition=bottom;verticalAlign=top;html=1;outlineConnect=0;" parent="1" vertex="1">
          <mxGeometry x="180" y="291" width="30" height="60" as="geometry" />
        </mxCell>
        <mxCell id="1Zy2XbYylVy56BqZgApC-197" style="edgeStyle=orthogonalEdgeStyle;rounded=0;orthogonalLoop=1;jettySize=auto;html=1;entryX=0;entryY=0.5;entryDx=0;entryDy=0;exitX=0.25;exitY=1;exitDx=0;exitDy=0;" parent="1" source="1Zy2XbYylVy56BqZgApC-200" target="1Zy2XbYylVy56BqZgApC-201" edge="1">
          <mxGeometry relative="1" as="geometry" />
        </mxCell>
        <mxCell id="1Zy2XbYylVy56BqZgApC-198" style="edgeStyle=orthogonalEdgeStyle;rounded=0;orthogonalLoop=1;jettySize=auto;html=1;exitX=1;exitY=0.5;exitDx=0;exitDy=0;entryX=0;entryY=0.5;entryDx=0;entryDy=0;" parent="1" source="1Zy2XbYylVy56BqZgApC-200" target="1Zy2XbYylVy56BqZgApC-207" edge="1">
          <mxGeometry relative="1" as="geometry">
            <mxPoint x="750" y="645" as="targetPoint" />
          </mxGeometry>
        </mxCell>
        <mxCell id="1Zy2XbYylVy56BqZgApC-199" style="edgeStyle=orthogonalEdgeStyle;rounded=0;orthogonalLoop=1;jettySize=auto;html=1;exitX=1;exitY=0.5;exitDx=0;exitDy=0;entryX=0;entryY=0.5;entryDx=0;entryDy=0;" parent="1" source="1Zy2XbYylVy56BqZgApC-200" target="1Zy2XbYylVy56BqZgApC-202" edge="1">
          <mxGeometry relative="1" as="geometry" />
        </mxCell>
        <mxCell id="1Zy2XbYylVy56BqZgApC-200" value="APISIX&lt;div&gt;Gateway&lt;/div&gt;" style="rounded=1;whiteSpace=wrap;html=1;arcSize=16;" parent="1" vertex="1">
          <mxGeometry x="450" y="291" width="120" height="60" as="geometry" />
        </mxCell>
        <mxCell id="1Zy2XbYylVy56BqZgApC-201" value="Consul" style="rounded=1;whiteSpace=wrap;html=1;" parent="1" vertex="1">
          <mxGeometry x="499" y="490" width="120" height="60" as="geometry" />
        </mxCell>
        <mxCell id="1Zy2XbYylVy56BqZgApC-202" value="" style="rounded=0;whiteSpace=wrap;html=1;" parent="1" vertex="1">
          <mxGeometry x="750" y="204" width="250" height="120" as="geometry" />
        </mxCell>
        <mxCell id="1Zy2XbYylVy56BqZgApC-203" value="Instance1" style="text;html=1;align=center;verticalAlign=middle;whiteSpace=wrap;rounded=0;" parent="1" vertex="1">
          <mxGeometry x="770" y="224" width="60" height="30" as="geometry" />
        </mxCell>
        <mxCell id="1Zy2XbYylVy56BqZgApC-204" style="edgeStyle=orthogonalEdgeStyle;rounded=0;orthogonalLoop=1;jettySize=auto;html=1;exitX=1;exitY=0.5;exitDx=0;exitDy=0;entryX=0;entryY=0.5;entryDx=0;entryDy=0;" parent="1" source="1Zy2XbYylVy56BqZgApC-205" target="1Zy2XbYylVy56BqZgApC-223" edge="1">
          <mxGeometry relative="1" as="geometry" />
        </mxCell>
        <mxCell id="1Zy2XbYylVy56BqZgApC-205" value="api" style="rounded=1;whiteSpace=wrap;html=1;" parent="1" vertex="1">
          <mxGeometry x="860" y="234" width="120" height="60" as="geometry" />
        </mxCell>
        <mxCell id="1Zy2XbYylVy56BqZgApC-206" style="edgeStyle=orthogonalEdgeStyle;rounded=0;orthogonalLoop=1;jettySize=auto;html=1;exitX=0.5;exitY=0;exitDx=0;exitDy=0;entryX=0.5;entryY=0;entryDx=0;entryDy=0;" parent="1" source="1Zy2XbYylVy56BqZgApC-207" target="1Zy2XbYylVy56BqZgApC-201" edge="1">
          <mxGeometry relative="1" as="geometry">
            <Array as="points">
              <mxPoint x="875" y="410" />
              <mxPoint x="559" y="410" />
            </Array>
          </mxGeometry>
        </mxCell>
        <mxCell id="1Zy2XbYylVy56BqZgApC-207" value="" style="rounded=0;whiteSpace=wrap;html=1;" parent="1" vertex="1">
          <mxGeometry x="750" y="511" width="250" height="120" as="geometry" />
        </mxCell>
        <mxCell id="1Zy2XbYylVy56BqZgApC-208" value="Instance2" style="text;html=1;align=center;verticalAlign=middle;whiteSpace=wrap;rounded=0;" parent="1" vertex="1">
          <mxGeometry x="770" y="531" width="60" height="30" as="geometry" />
        </mxCell>
        <mxCell id="1Zy2XbYylVy56BqZgApC-209" style="edgeStyle=orthogonalEdgeStyle;rounded=0;orthogonalLoop=1;jettySize=auto;html=1;exitX=1;exitY=0.5;exitDx=0;exitDy=0;entryX=0;entryY=0.5;entryDx=0;entryDy=0;" parent="1" source="1Zy2XbYylVy56BqZgApC-223" target="1Zy2XbYylVy56BqZgApC-214" edge="1">
          <mxGeometry relative="1" as="geometry" />
        </mxCell>
        <mxCell id="1Zy2XbYylVy56BqZgApC-211" value="api" style="rounded=1;whiteSpace=wrap;html=1;" parent="1" vertex="1">
          <mxGeometry x="860" y="541" width="120" height="60" as="geometry" />
        </mxCell>
        <mxCell id="1Zy2XbYylVy56BqZgApC-213" style="edgeStyle=orthogonalEdgeStyle;rounded=0;orthogonalLoop=1;jettySize=auto;html=1;entryX=0;entryY=0.5;entryDx=0;entryDy=0;" parent="1" source="1Zy2XbYylVy56BqZgApC-214" target="1Zy2XbYylVy56BqZgApC-231" edge="1">
          <mxGeometry relative="1" as="geometry">
            <mxPoint x="1512" y="740" as="targetPoint" />
          </mxGeometry>
        </mxCell>
        <mxCell id="1Zy2XbYylVy56BqZgApC-214" value="PostgreSQL router&amp;nbsp;" style="rounded=0;whiteSpace=wrap;html=1;" parent="1" vertex="1">
          <mxGeometry x="1322" y="334" width="115" height="190" as="geometry" />
        </mxCell>
        <mxCell id="1Zy2XbYylVy56BqZgApC-215" style="edgeStyle=orthogonalEdgeStyle;rounded=0;orthogonalLoop=1;jettySize=auto;html=1;entryX=0;entryY=0.5;entryDx=0;entryDy=0;" parent="1" source="1Zy2XbYylVy56BqZgApC-214" target="1Zy2XbYylVy56BqZgApC-224" edge="1">
          <mxGeometry relative="1" as="geometry">
            <mxPoint x="1526.7400000000002" y="487.89999999999964" as="targetPoint" />
          </mxGeometry>
        </mxCell>
        <mxCell id="1Zy2XbYylVy56BqZgApC-216" style="edgeStyle=orthogonalEdgeStyle;rounded=0;orthogonalLoop=1;jettySize=auto;html=1;exitX=1;exitY=0.5;exitDx=0;exitDy=0;" parent="1" source="1Zy2XbYylVy56BqZgApC-205" target="1Zy2XbYylVy56BqZgApC-212" edge="1">
          <mxGeometry relative="1" as="geometry" />
        </mxCell>
        <mxCell id="1Zy2XbYylVy56BqZgApC-217" value="" style="edgeStyle=orthogonalEdgeStyle;rounded=0;orthogonalLoop=1;jettySize=auto;html=1;entryX=0;entryY=0.5;entryDx=0;entryDy=0;" parent="1" source="1Zy2XbYylVy56BqZgApC-196" target="1Zy2XbYylVy56BqZgApC-218" edge="1">
          <mxGeometry relative="1" as="geometry">
            <mxPoint x="260" y="321" as="sourcePoint" />
            <mxPoint x="450" y="321" as="targetPoint" />
          </mxGeometry>
        </mxCell>
        <mxCell id="1Zy2XbYylVy56BqZgApC-218" value="&lt;div&gt;Nginx (&lt;span style=&quot;background-color: initial;&quot;&gt;Сайт&lt;/span&gt;&lt;/div&gt;&lt;div&gt;&lt;span style=&quot;background-color: initial;&quot;&gt;React&lt;/span&gt;)&lt;/div&gt;" style="rounded=1;whiteSpace=wrap;html=1;arcSize=16;" parent="1" vertex="1">
          <mxGeometry x="285" y="291" width="120" height="60" as="geometry" />
        </mxCell>
        <mxCell id="1Zy2XbYylVy56BqZgApC-220" style="edgeStyle=orthogonalEdgeStyle;rounded=0;orthogonalLoop=1;jettySize=auto;html=1;exitX=0.5;exitY=0;exitDx=0;exitDy=0;entryX=0.5;entryY=1;entryDx=0;entryDy=0;" parent="1" source="1Zy2XbYylVy56BqZgApC-221" target="1Zy2XbYylVy56BqZgApC-223" edge="1">
          <mxGeometry relative="1" as="geometry" />
        </mxCell>
        <mxCell id="1Zy2XbYylVy56BqZgApC-221" value="configSrv&lt;div&gt;(&lt;font style=&quot;font-size: 12px;&quot;&gt;&lt;span style=&quot;text-wrap: nowrap; background-color: rgb(255, 255, 255);&quot;&gt;данные&lt;br&gt;&lt;/span&gt;&lt;span style=&quot;text-wrap: nowrap; background-color: initial;&quot;&gt;&amp;nbsp;о кластере&lt;/span&gt;&lt;/font&gt;)&lt;/div&gt;" style="rounded=0;whiteSpace=wrap;html=1;" parent="1" vertex="1">
          <mxGeometry x="1149" y="541" width="120" height="60" as="geometry" />
        </mxCell>
        <mxCell id="1Zy2XbYylVy56BqZgApC-222" value="" style="edgeStyle=orthogonalEdgeStyle;rounded=0;orthogonalLoop=1;jettySize=auto;html=1;exitX=1;exitY=0.5;exitDx=0;exitDy=0;entryX=0;entryY=0.5;entryDx=0;entryDy=0;" parent="1" source="1Zy2XbYylVy56BqZgApC-211" target="1Zy2XbYylVy56BqZgApC-223" edge="1">
          <mxGeometry relative="1" as="geometry">
            <mxPoint x="980" y="571" as="sourcePoint" />
            <mxPoint x="1322" y="429" as="targetPoint" />
          </mxGeometry>
        </mxCell>
        <mxCell id="1Zy2XbYylVy56BqZgApC-223" value="PostgreSQL&amp;nbsp;&lt;div&gt;&lt;span style=&quot;white-space-collapse: preserve;&quot; data-src-align=&quot;0:13&quot; class=&quot;EzKURWReUAB5oZgtQNkl&quot;&gt;driver&lt;/span&gt;&lt;/div&gt;" style="rounded=0;whiteSpace=wrap;html=1;" parent="1" vertex="1">
          <mxGeometry x="1150" y="379" width="115" height="100" as="geometry" />
        </mxCell>
        <mxCell id="1Zy2XbYylVy56BqZgApC-224" value="" style="whiteSpace=wrap;html=1;aspect=fixed;" parent="1" vertex="1">
          <mxGeometry x="1560" y="234" width="220" height="220" as="geometry" />
        </mxCell>
        <mxCell id="1Zy2XbYylVy56BqZgApC-225" value="PostgreSQL&lt;br&gt;sh1 primary" style="shape=cylinder3;whiteSpace=wrap;html=1;boundedLbl=1;backgroundOutline=1;size=15;" parent="1" vertex="1">
          <mxGeometry x="1590" y="294" width="60" height="80" as="geometry" />
        </mxCell>
        <mxCell id="1Zy2XbYylVy56BqZgApC-226" style="edgeStyle=orthogonalEdgeStyle;rounded=0;orthogonalLoop=1;jettySize=auto;html=1;exitX=0;exitY=0.5;exitDx=0;exitDy=0;exitPerimeter=0;" parent="1" source="1Zy2XbYylVy56BqZgApC-227" target="1Zy2XbYylVy56BqZgApC-225" edge="1">
          <mxGeometry relative="1" as="geometry" />
        </mxCell>
        <mxCell id="1Zy2XbYylVy56BqZgApC-227" value="PostgreSQ&lt;br&gt;&lt;div&gt;sh1&lt;br&gt;secondary&amp;nbsp;&lt;/div&gt;" style="shape=cylinder3;whiteSpace=wrap;html=1;boundedLbl=1;backgroundOutline=1;size=15;" parent="1" vertex="1">
          <mxGeometry x="1680" y="244" width="60" height="80" as="geometry" />
        </mxCell>
        <mxCell id="1Zy2XbYylVy56BqZgApC-228" style="edgeStyle=orthogonalEdgeStyle;rounded=0;orthogonalLoop=1;jettySize=auto;html=1;exitX=0;exitY=0.5;exitDx=0;exitDy=0;exitPerimeter=0;" parent="1" source="1Zy2XbYylVy56BqZgApC-229" target="1Zy2XbYylVy56BqZgApC-225" edge="1">
          <mxGeometry relative="1" as="geometry" />
        </mxCell>
        <mxCell id="1Zy2XbYylVy56BqZgApC-229" value="PostgreSQ&lt;br&gt;&lt;div&gt;sh1&lt;br&gt;secondary&amp;nbsp;&lt;/div&gt;" style="shape=cylinder3;whiteSpace=wrap;html=1;boundedLbl=1;backgroundOutline=1;size=15;" parent="1" vertex="1">
          <mxGeometry x="1680" y="354" width="60" height="80" as="geometry" />
        </mxCell>
        <mxCell id="1Zy2XbYylVy56BqZgApC-230" value="Shard1" style="text;html=1;align=center;verticalAlign=middle;whiteSpace=wrap;rounded=0;" parent="1" vertex="1">
          <mxGeometry x="1570" y="244" width="60" height="30" as="geometry" />
        </mxCell>
        <mxCell id="1Zy2XbYylVy56BqZgApC-231" value="" style="whiteSpace=wrap;html=1;aspect=fixed;" parent="1" vertex="1">
          <mxGeometry x="1560" y="481" width="220" height="220" as="geometry" />
        </mxCell>
        <mxCell id="1Zy2XbYylVy56BqZgApC-232" value="MongoDB&lt;div&gt;sh2&lt;br&gt;primary&lt;/div&gt;" style="shape=cylinder3;whiteSpace=wrap;html=1;boundedLbl=1;backgroundOutline=1;size=15;" parent="1" vertex="1">
          <mxGeometry x="1590" y="541" width="60" height="80" as="geometry" />
        </mxCell>
        <mxCell id="1Zy2XbYylVy56BqZgApC-233" style="edgeStyle=orthogonalEdgeStyle;rounded=0;orthogonalLoop=1;jettySize=auto;html=1;exitX=0;exitY=0.5;exitDx=0;exitDy=0;exitPerimeter=0;" parent="1" source="1Zy2XbYylVy56BqZgApC-235" target="1Zy2XbYylVy56BqZgApC-232" edge="1">
          <mxGeometry relative="1" as="geometry" />
        </mxCell>
        <mxCell id="1Zy2XbYylVy56BqZgApC-234" style="edgeStyle=orthogonalEdgeStyle;rounded=0;orthogonalLoop=1;jettySize=auto;html=1;exitX=0.5;exitY=1;exitDx=0;exitDy=0;exitPerimeter=0;startArrow=classic;startFill=1;" parent="1" source="1Zy2XbYylVy56BqZgApC-235" target="1Zy2XbYylVy56BqZgApC-236" edge="1">
          <mxGeometry relative="1" as="geometry" />
        </mxCell>
        <mxCell id="1Zy2XbYylVy56BqZgApC-235" value="PostgreSQ&lt;br&gt;&lt;div&gt;sh2&lt;br&gt;secondary&amp;nbsp;&lt;/div&gt;" style="shape=cylinder3;whiteSpace=wrap;html=1;boundedLbl=1;backgroundOutline=1;size=15;" parent="1" vertex="1">
          <mxGeometry x="1680" y="491" width="60" height="80" as="geometry" />
        </mxCell>
        <mxCell id="1Zy2XbYylVy56BqZgApC-236" value="PostgreSQ&lt;br&gt;&lt;div&gt;sh2&lt;br&gt;secondary&amp;nbsp;&lt;/div&gt;" style="shape=cylinder3;whiteSpace=wrap;html=1;boundedLbl=1;backgroundOutline=1;size=15;" parent="1" vertex="1">
          <mxGeometry x="1680" y="601" width="60" height="80" as="geometry" />
        </mxCell>
        <mxCell id="1Zy2XbYylVy56BqZgApC-237" value="Shard2" style="text;html=1;align=center;verticalAlign=middle;whiteSpace=wrap;rounded=0;" parent="1" vertex="1">
          <mxGeometry x="1570" y="491" width="60" height="30" as="geometry" />
        </mxCell>
        <mxCell id="1Zy2XbYylVy56BqZgApC-238" style="edgeStyle=orthogonalEdgeStyle;rounded=0;orthogonalLoop=1;jettySize=auto;html=1;exitX=0.5;exitY=0;exitDx=0;exitDy=0;exitPerimeter=0;entryX=0.5;entryY=1;entryDx=0;entryDy=0;entryPerimeter=0;startArrow=classic;startFill=1;" parent="1" source="1Zy2XbYylVy56BqZgApC-229" target="1Zy2XbYylVy56BqZgApC-227" edge="1">
          <mxGeometry relative="1" as="geometry" />
        </mxCell>
        <mxCell id="1Zy2XbYylVy56BqZgApC-239" style="edgeStyle=orthogonalEdgeStyle;rounded=0;orthogonalLoop=1;jettySize=auto;html=1;exitX=0;exitY=0.5;exitDx=0;exitDy=0;exitPerimeter=0;entryX=1;entryY=0.5;entryDx=0;entryDy=0;entryPerimeter=0;" parent="1" source="1Zy2XbYylVy56BqZgApC-236" target="1Zy2XbYylVy56BqZgApC-232" edge="1">
          <mxGeometry relative="1" as="geometry" />
        </mxCell>
        <mxCell id="1Zy2XbYylVy56BqZgApC-240" style="edgeStyle=orthogonalEdgeStyle;rounded=0;orthogonalLoop=1;jettySize=auto;html=1;exitX=0.07;exitY=0.4;exitDx=0;exitDy=0;exitPerimeter=0;" parent="1" source="1Zy2XbYylVy56BqZgApC-241" target="1Zy2XbYylVy56BqZgApC-218" edge="1">
          <mxGeometry relative="1" as="geometry">
            <Array as="points">
              <mxPoint x="210" y="590" />
              <mxPoint x="210" y="400" />
              <mxPoint x="345" y="400" />
            </Array>
          </mxGeometry>
        </mxCell>
        <mxCell id="1Zy2XbYylVy56BqZgApC-241" value="CDN регион 2" style="ellipse;shape=cloud;whiteSpace=wrap;html=1;" parent="1" vertex="1">
          <mxGeometry x="200" y="550" width="250" height="100" as="geometry" />
        </mxCell>
        <mxCell id="1Zy2XbYylVy56BqZgApC-242" style="edgeStyle=orthogonalEdgeStyle;rounded=0;orthogonalLoop=1;jettySize=auto;html=1;exitX=0.07;exitY=0.4;exitDx=0;exitDy=0;exitPerimeter=0;entryX=0.5;entryY=1;entryDx=0;entryDy=0;" parent="1" source="1Zy2XbYylVy56BqZgApC-243" target="1Zy2XbYylVy56BqZgApC-218" edge="1">
          <mxGeometry relative="1" as="geometry">
            <Array as="points">
              <mxPoint x="210" y="480" />
              <mxPoint x="210" y="400" />
              <mxPoint x="345" y="400" />
            </Array>
          </mxGeometry>
        </mxCell>
        <mxCell id="1Zy2XbYylVy56BqZgApC-243" value="CDN Сибирь 1" style="ellipse;shape=cloud;whiteSpace=wrap;html=1;" parent="1" vertex="1">
          <mxGeometry x="201" y="440" width="239" height="100" as="geometry" />
        </mxCell>
        <mxCell id="1Zy2XbYylVy56BqZgApC-244" style="edgeStyle=orthogonalEdgeStyle;rounded=0;orthogonalLoop=1;jettySize=auto;html=1;exitX=0.07;exitY=0.4;exitDx=0;exitDy=0;exitPerimeter=0;entryX=0.5;entryY=1;entryDx=0;entryDy=0;" parent="1" source="1Zy2XbYylVy56BqZgApC-245" target="1Zy2XbYylVy56BqZgApC-218" edge="1">
          <mxGeometry relative="1" as="geometry">
            <Array as="points">
              <mxPoint x="210" y="718" />
              <mxPoint x="210" y="400" />
              <mxPoint x="345" y="400" />
            </Array>
          </mxGeometry>
        </mxCell>
        <mxCell id="1Zy2XbYylVy56BqZgApC-245" value="CDN регион 3" style="ellipse;shape=cloud;whiteSpace=wrap;html=1;" parent="1" vertex="1">
          <mxGeometry x="204" y="670" width="234" height="100" as="geometry" />
        </mxCell>
        <mxCell id="8lt_x16I5uMYNQBReWNL-1" value="Redis" style="shape=cylinder3;whiteSpace=wrap;html=1;boundedLbl=1;backgroundOutline=1;size=15;" vertex="1" parent="1">
          <mxGeometry x="1120" y="164" width="60" height="80" as="geometry" />
        </mxCell>
        <mxCell id="8lt_x16I5uMYNQBReWNL-2" value="Redis" style="shape=cylinder3;whiteSpace=wrap;html=1;boundedLbl=1;backgroundOutline=1;size=15;" vertex="1" parent="1">
          <mxGeometry x="1140" y="174" width="60" height="80" as="geometry" />
        </mxCell>
        <mxCell id="1Zy2XbYylVy56BqZgApC-212" value="Redis" style="shape=cylinder3;whiteSpace=wrap;html=1;boundedLbl=1;backgroundOutline=1;size=15;" parent="1" vertex="1">
          <mxGeometry x="1100" y="180" width="60" height="80" as="geometry" />
        </mxCell>
        <mxCell id="8lt_x16I5uMYNQBReWNL-3" style="edgeStyle=orthogonalEdgeStyle;rounded=0;orthogonalLoop=1;jettySize=auto;html=1;exitX=1;exitY=0.5;exitDx=0;exitDy=0;entryX=0;entryY=0.5;entryDx=0;entryDy=0;entryPerimeter=0;" edge="1" parent="1" source="1Zy2XbYylVy56BqZgApC-211" target="1Zy2XbYylVy56BqZgApC-212">
          <mxGeometry relative="1" as="geometry" />
        </mxCell>
      </root>
    </mxGraphModel>
  </diagram>
</mxfile>
